<?xml version="1.0" standalone="no"?>
<!DOCTYPE svg PUBLIC "-//W3C//DTD SVG 20010904//EN"
 "http://www.w3.org/TR/2001/REC-SVG-20010904/DTD/svg10.dtd">
<svg version="1.0" xmlns="http://www.w3.org/2000/svg"
 width="512.000000pt" height="512.000000pt" viewBox="0 0 512.000000 512.000000"
 preserveAspectRatio="xMidYMid meet">

<g transform="translate(0.000000,512.000000) scale(0.100000,-0.100000)"
fill="#000000" stroke="none">
<path d="M265 5110 c-97 -24 -187 -97 -232 -189 l-28 -56 -3 -867 -3 -866 23
-26 c13 -14 37 -29 55 -32 27 -5 37 -1 63 24 l30 30 0 244 c0 273 7 303 71
349 l34 24 2285 0 2285 0 34 -24 c18 -13 42 -42 52 -65 18 -39 19 -97 19
-1436 0 -1333 -1 -1397 -19 -1435 -45 -98 -69 -104 -443 -105 l-308 0 -2 973
-3 972 -28 60 c-23 50 -65 97 -239 272 -159 159 -227 220 -272 245 l-61 33
-1218 3 -1218 2 -49 -21 c-56 -24 -103 -72 -131 -133 -18 -39 -19 -95 -19
-1223 l0 -1183 -307 0 c-375 1 -399 7 -444 105 -18 38 -19 91 -19 1053 l0
1013 -25 24 c-40 41 -113 27 -135 -24 -7 -18 -10 -331 -8 -1051 l3 -1025 29
-62 c34 -75 95 -134 174 -171 l57 -27 338 -3 337 -3 0 -152 c0 -138 2 -156 24
-202 27 -58 65 -99 121 -129 l40 -21 1435 0 1435 0 40 21 c56 30 94 71 121
129 22 46 24 64 24 202 l0 152 338 3 337 3 57 27 c79 37 140 96 174 171 l29
62 0 1830 0 1830 -26 56 c-33 69 -91 129 -161 166 l-53 28 -1290 5 -1290 5
-55 26 c-31 14 -130 88 -225 168 -183 152 -265 201 -369 220 -68 13 -1332 14
-1381 1z m1345 -170 c83 -16 123 -41 309 -196 96 -79 197 -155 225 -169 119
-57 62 -55 1418 -55 1032 0 1254 -2 1281 -14 42 -17 83 -66 97 -114 5 -21 10
-142 10 -274 l0 -237 -46 21 c-28 12 -78 22 -124 25 l-77 6 -7 81 c-12 138
-78 244 -191 304 l-50 27 -1895 0 -1895 0 -50 -27 c-113 -60 -179 -166 -191
-304 l-7 -81 -77 -6 c-46 -3 -96 -13 -124 -25 l-46 -21 0 452 c0 287 4 466 11
490 5 21 22 52 37 68 53 58 49 58 723 59 372 0 637 -4 669 -10z m2817 -776
c19 -9 46 -33 61 -52 23 -30 28 -47 31 -114 l3 -78 -1961 0 -1961 0 0 65 c0
98 24 142 95 179 27 14 220 16 1863 16 1680 0 1837 -1 1869 -16z m-1097 -1438
c0 -195 -4 -356 -10 -370 -21 -56 -23 -56 -589 -56 -382 0 -527 3 -546 12 -53
24 -55 38 -55 413 l0 345 600 0 600 0 0 -344z m-49 -1201 c16 -9 34 -27 39
-41 6 -15 10 -284 10 -670 l0 -644 -770 0 -770 0 0 644 c0 385 4 655 10 670
21 56 4 55 758 56 606 0 697 -2 723 -15z"/>
<path d="M2929 2870 l-30 -30 3 -161 c3 -155 4 -161 27 -180 36 -29 94 -25
120 7 19 24 21 40 21 186 0 155 -1 159 -25 183 -34 35 -78 33 -116 -5z"/>
<path d="M2095 1268 c-41 -23 -56 -68 -39 -113 17 -43 40 -45 504 -45 464 0
487 2 504 45 17 46 1 91 -41 113 -31 17 -899 16 -928 0z"/>
<path d="M2081 914 c-40 -33 -43 -83 -6 -119 l24 -25 461 0 461 0 24 25 c37
36 34 86 -6 119 l-31 26 -448 0 -448 0 -31 -26z"/>
<path d="M2104 590 c-55 -22 -70 -95 -29 -135 l24 -25 461 0 461 0 24 25 c32
31 32 75 1 112 l-24 28 -449 2 c-246 1 -458 -2 -469 -7z"/>
</g>
</svg>