<svg xmlns="http://www.w3.org/2000/svg" width="32" height="32" viewBox="0 0 32 32">
  <style>
    .primary { fill: #2B6CB0; }
    .secondary { fill: #4299E1; }
  </style>
  
  <!-- Background -->
  <circle class="secondary" cx="16" cy="16" r="16" />
  
  <!-- Floppy disk icon simplified -->
  <path class="primary" d="M24,8v16c0,1.1-0.9,2-2,2H10c-1.1,0-2-0.9-2-2V8c0-1.1,0.9-2,2-2h12C23.1,6,24,6.9,24,8z M22,8
    c0-0.3-0.2-0.5-0.5-0.5h-1c-0.3,0-0.5,0.2-0.5,0.5v5c0,0.3-0.2,0.5-0.5,0.5h-7c-0.3,0-0.5-0.2-0.5-0.5V8c0-0.3-0.2-0.5-0.5-0.5h-1
    C10.2,7.5,10,7.7,10,8v16c0,0.3,0.2,0.5,0.5,0.5h11c0.3,0,0.5-0.2,0.5-0.5V8z" />
  
  <!-- Arrow indicating automatic saving -->
  <path fill="white" d="M16,18c-0.1,0-0.3-0.1-0.4-0.1l-4-4c-0.2-0.2-0.2-0.5,0-0.7s0.5-0.2,0.7,0l3.7,3.7l3.7-3.7c0.2-0.2,0.5-0.2,0.7,0
    s0.2,0.5,0,0.7l-4,4C16.3,17.9,16.1,18,16,18z" />
</svg> 