<svg xmlns="http://www.w3.org/2000/svg" width="64" height="64" viewBox="0 0 64 64">
  <style>
    .primary { fill: #2B6CB0; }
    .secondary { fill: #4299E1; }
  </style>
  
  <!-- Circular background -->
  <circle class="secondary" cx="32" cy="32" r="30" opacity="0.2" />
  
  <!-- Shield shape -->
  <path class="primary" d="M32,12c-8.8,0-16,2.7-16,6v12c0,8.8,7.2,16,16,16s16-7.2,16-16V18C48,14.7,40.8,12,32,12z M44,30
    c0,6.6-5.4,12-12,12s-12-5.4-12-12V19.5c3.4,1.6,8.4,2.5,12,2.5s8.6-0.9,12-2.5V30z" />
  
  <!-- Check mark inside shield -->
  <path fill="white" d="M30,36.2l-5.6-5.6l2.8-2.8l2.8,2.8l8.4-8.4l2.8,2.8L30,36.2z" />
</svg> 