<svg xmlns="http://www.w3.org/2000/svg" width="24" height="24" viewBox="0 0 24 24">
  <!-- Facebook logo -->
  <path fill="#1877F2" d="M22,12c0-5.5-4.5-10-10-10S2,6.5,2,12c0,5,3.7,9.1,8.4,9.9v-7H7.9V12h2.5V9.8c0-2.5,1.5-3.9,3.8-3.9
    c1.1,0,2.2,0.2,2.2,0.2v2.5h-1.3c-1.2,0-1.6,0.8-1.6,1.6V12h2.8l-0.4,2.9h-2.3v7C18.3,21.1,22,17,22,12z" />
  <path fill="white" d="M15.9,14.9l0.4-2.9h-2.8v-1.9c0-0.8,0.4-1.6,1.6-1.6h1.3V6.1c0,0-1.1-0.2-2.2-0.2c-2.3,0-3.8,1.4-3.8,3.9V12
    H7.9v2.9h2.5v7c0.5,0.1,1,0.1,1.6,0.1s1.1,0,1.6-0.1v-7H15.9z" />
</svg> 