<svg xmlns="http://www.w3.org/2000/svg" width="32" height="32" viewBox="0 0 32 32">
  <style>
    .support-blue { fill: #2B6CB0; }
  </style>
  
  <!-- Headset -->
  <path class="support-blue" d="M16,4C9.4,4,4,9.4,4,16v6c0,1.1,0.9,2,2,2h2v-8H6c0-5.5,4.5-10,10-10s10,4.5,10,10h-2v8h2c1.1,0,2-0.9,2-2v-6
    C28,9.4,22.6,4,16,4z" />
  
  <!-- Ear pieces -->
  <path class="support-blue" d="M8,16v6c0,1.1,0.9,2,2,2h2v-8H8z M20,16v8h2c1.1,0,2-0.9,2-2v-6H20z" />
  
  <!-- Microphone -->
  <circle fill="white" cx="16" cy="24" r="2" />
  <rect fill="white" x="15" y="18" width="2" height="6" />
</svg> 